<mxfile host="app.diagrams.net" modified="2024-04-15T07:20:11.137Z" agent="Mozilla/5.0 (Windows NT 10.0; Win64; x64) AppleWebKit/537.36 (KHTML, like Gecko) Chrome/122.0.0.0 Safari/537.36 Edg/122.0.0.0" etag="RWU-BPNSTczPHYKQVSab" version="24.2.2" type="github">
  <diagram id="sMtTaDwT5XrPgKgThKP9" name="第 1 页">
    <mxGraphModel dx="1143" dy="621" grid="1" gridSize="10" guides="1" tooltips="1" connect="1" arrows="1" fold="1" page="1" pageScale="1" pageWidth="827" pageHeight="1169" math="0" shadow="0">
      <root>
        <mxCell id="0" />
        <mxCell id="1" parent="0" />
        <mxCell id="uvOmoEfLct1VwI4fXbVf-1" value="" style="ellipse;whiteSpace=wrap;html=1;aspect=fixed;strokeWidth=2;fontFamily=Times New Roman;" parent="1" vertex="1">
          <mxGeometry x="180" y="180" width="30" height="30" as="geometry" />
        </mxCell>
        <mxCell id="uvOmoEfLct1VwI4fXbVf-18" style="edgeStyle=orthogonalEdgeStyle;rounded=0;orthogonalLoop=1;jettySize=auto;html=1;exitX=1;exitY=0.5;exitDx=0;exitDy=0;entryX=0;entryY=0.5;entryDx=0;entryDy=0;fontFamily=Times New Roman;" parent="1" source="uvOmoEfLct1VwI4fXbVf-2" target="uvOmoEfLct1VwI4fXbVf-6" edge="1">
          <mxGeometry relative="1" as="geometry" />
        </mxCell>
        <mxCell id="uvOmoEfLct1VwI4fXbVf-2" value="" style="ellipse;whiteSpace=wrap;html=1;aspect=fixed;strokeWidth=2;fontFamily=Times New Roman;" parent="1" vertex="1">
          <mxGeometry x="180" y="250" width="30" height="30" as="geometry" />
        </mxCell>
        <mxCell id="uvOmoEfLct1VwI4fXbVf-20" style="edgeStyle=orthogonalEdgeStyle;rounded=0;orthogonalLoop=1;jettySize=auto;html=1;exitX=1;exitY=0.5;exitDx=0;exitDy=0;entryX=0;entryY=0.5;entryDx=0;entryDy=0;fontFamily=Times New Roman;" parent="1" source="uvOmoEfLct1VwI4fXbVf-3" target="uvOmoEfLct1VwI4fXbVf-7" edge="1">
          <mxGeometry relative="1" as="geometry" />
        </mxCell>
        <mxCell id="uvOmoEfLct1VwI4fXbVf-3" value="" style="ellipse;whiteSpace=wrap;html=1;aspect=fixed;strokeWidth=2;fontFamily=Times New Roman;" parent="1" vertex="1">
          <mxGeometry x="180" y="320" width="30" height="30" as="geometry" />
        </mxCell>
        <mxCell id="uvOmoEfLct1VwI4fXbVf-22" style="edgeStyle=orthogonalEdgeStyle;rounded=0;orthogonalLoop=1;jettySize=auto;html=1;exitX=1;exitY=0.5;exitDx=0;exitDy=0;entryX=0;entryY=0.5;entryDx=0;entryDy=0;fontFamily=Times New Roman;" parent="1" source="uvOmoEfLct1VwI4fXbVf-4" target="uvOmoEfLct1VwI4fXbVf-8" edge="1">
          <mxGeometry relative="1" as="geometry" />
        </mxCell>
        <mxCell id="uvOmoEfLct1VwI4fXbVf-4" value="" style="ellipse;whiteSpace=wrap;html=1;aspect=fixed;strokeWidth=2;fontFamily=Times New Roman;" parent="1" vertex="1">
          <mxGeometry x="180" y="390" width="30" height="30" as="geometry" />
        </mxCell>
        <mxCell id="uvOmoEfLct1VwI4fXbVf-5" value="" style="ellipse;whiteSpace=wrap;html=1;aspect=fixed;strokeWidth=2;fontFamily=Times New Roman;" parent="1" vertex="1">
          <mxGeometry x="180" y="460" width="30" height="30" as="geometry" />
        </mxCell>
        <mxCell id="uvOmoEfLct1VwI4fXbVf-19" style="edgeStyle=orthogonalEdgeStyle;rounded=0;orthogonalLoop=1;jettySize=auto;html=1;exitX=1;exitY=0.5;exitDx=0;exitDy=0;entryX=0;entryY=0.5;entryDx=0;entryDy=0;fontFamily=Times New Roman;" parent="1" source="uvOmoEfLct1VwI4fXbVf-6" target="uvOmoEfLct1VwI4fXbVf-10" edge="1">
          <mxGeometry relative="1" as="geometry" />
        </mxCell>
        <mxCell id="uvOmoEfLct1VwI4fXbVf-28" style="edgeStyle=orthogonalEdgeStyle;rounded=0;orthogonalLoop=1;jettySize=auto;html=1;exitX=0.5;exitY=1;exitDx=0;exitDy=0;entryX=0.5;entryY=0;entryDx=0;entryDy=0;strokeColor=#3399FF;fontFamily=Times New Roman;" parent="1" source="uvOmoEfLct1VwI4fXbVf-6" target="uvOmoEfLct1VwI4fXbVf-7" edge="1">
          <mxGeometry relative="1" as="geometry" />
        </mxCell>
        <mxCell id="uvOmoEfLct1VwI4fXbVf-6" value="" style="ellipse;whiteSpace=wrap;html=1;aspect=fixed;fillColor=#3399FF;strokeColor=#003333;strokeWidth=2;fontFamily=Times New Roman;" parent="1" vertex="1">
          <mxGeometry x="290" y="250" width="30" height="30" as="geometry" />
        </mxCell>
        <mxCell id="uvOmoEfLct1VwI4fXbVf-21" style="edgeStyle=orthogonalEdgeStyle;rounded=0;orthogonalLoop=1;jettySize=auto;html=1;exitX=1;exitY=0.5;exitDx=0;exitDy=0;entryX=0;entryY=0.5;entryDx=0;entryDy=0;fontFamily=Times New Roman;" parent="1" source="uvOmoEfLct1VwI4fXbVf-7" target="uvOmoEfLct1VwI4fXbVf-11" edge="1">
          <mxGeometry relative="1" as="geometry" />
        </mxCell>
        <mxCell id="uvOmoEfLct1VwI4fXbVf-29" style="edgeStyle=orthogonalEdgeStyle;rounded=0;orthogonalLoop=1;jettySize=auto;html=1;exitX=0.5;exitY=1;exitDx=0;exitDy=0;entryX=0.5;entryY=0;entryDx=0;entryDy=0;strokeColor=#3399FF;fontFamily=Times New Roman;" parent="1" source="uvOmoEfLct1VwI4fXbVf-7" target="uvOmoEfLct1VwI4fXbVf-8" edge="1">
          <mxGeometry relative="1" as="geometry" />
        </mxCell>
        <mxCell id="uvOmoEfLct1VwI4fXbVf-7" value="" style="ellipse;whiteSpace=wrap;html=1;aspect=fixed;strokeWidth=2;fillColor=#00CC00;fontFamily=Times New Roman;" parent="1" vertex="1">
          <mxGeometry x="290" y="320" width="30" height="30" as="geometry" />
        </mxCell>
        <mxCell id="uvOmoEfLct1VwI4fXbVf-23" style="edgeStyle=orthogonalEdgeStyle;rounded=0;orthogonalLoop=1;jettySize=auto;html=1;exitX=1;exitY=0.5;exitDx=0;exitDy=0;entryX=0;entryY=0.5;entryDx=0;entryDy=0;fontFamily=Times New Roman;" parent="1" source="uvOmoEfLct1VwI4fXbVf-8" target="uvOmoEfLct1VwI4fXbVf-12" edge="1">
          <mxGeometry relative="1" as="geometry" />
        </mxCell>
        <mxCell id="uvOmoEfLct1VwI4fXbVf-8" value="" style="ellipse;whiteSpace=wrap;html=1;aspect=fixed;strokeWidth=2;fillColor=#990099;fontFamily=Times New Roman;" parent="1" vertex="1">
          <mxGeometry x="290" y="390" width="30" height="30" as="geometry" />
        </mxCell>
        <mxCell id="uvOmoEfLct1VwI4fXbVf-9" value="" style="ellipse;whiteSpace=wrap;html=1;aspect=fixed;strokeWidth=2;fillColor=#FFF2CC;fontFamily=Times New Roman;" parent="1" vertex="1">
          <mxGeometry x="399" y="180" width="30" height="30" as="geometry" />
        </mxCell>
        <mxCell id="uvOmoEfLct1VwI4fXbVf-33" style="edgeStyle=orthogonalEdgeStyle;rounded=0;orthogonalLoop=1;jettySize=auto;html=1;exitX=0.5;exitY=0;exitDx=0;exitDy=0;entryX=0.5;entryY=1;entryDx=0;entryDy=0;strokeColor=#EA6B66;fontFamily=Times New Roman;" parent="1" source="uvOmoEfLct1VwI4fXbVf-10" target="uvOmoEfLct1VwI4fXbVf-9" edge="1">
          <mxGeometry relative="1" as="geometry" />
        </mxCell>
        <mxCell id="uvOmoEfLct1VwI4fXbVf-10" value="" style="ellipse;whiteSpace=wrap;html=1;aspect=fixed;strokeWidth=2;fillColor=#3399FF;fontFamily=Times New Roman;" parent="1" vertex="1">
          <mxGeometry x="398.5" y="250" width="30" height="30" as="geometry" />
        </mxCell>
        <mxCell id="uvOmoEfLct1VwI4fXbVf-32" style="edgeStyle=orthogonalEdgeStyle;rounded=0;orthogonalLoop=1;jettySize=auto;html=1;exitX=0.5;exitY=0;exitDx=0;exitDy=0;entryX=0.5;entryY=1;entryDx=0;entryDy=0;strokeColor=#EA6B66;fontFamily=Times New Roman;" parent="1" source="uvOmoEfLct1VwI4fXbVf-11" target="uvOmoEfLct1VwI4fXbVf-10" edge="1">
          <mxGeometry relative="1" as="geometry" />
        </mxCell>
        <mxCell id="uvOmoEfLct1VwI4fXbVf-11" value="" style="ellipse;whiteSpace=wrap;html=1;aspect=fixed;strokeWidth=2;fillColor=#00CC00;fontFamily=Times New Roman;" parent="1" vertex="1">
          <mxGeometry x="399" y="320" width="30" height="30" as="geometry" />
        </mxCell>
        <mxCell id="uvOmoEfLct1VwI4fXbVf-31" style="edgeStyle=orthogonalEdgeStyle;rounded=0;orthogonalLoop=1;jettySize=auto;html=1;exitX=0.5;exitY=0;exitDx=0;exitDy=0;entryX=0.5;entryY=1;entryDx=0;entryDy=0;strokeColor=#EA6B66;fontFamily=Times New Roman;" parent="1" source="uvOmoEfLct1VwI4fXbVf-12" target="uvOmoEfLct1VwI4fXbVf-11" edge="1">
          <mxGeometry relative="1" as="geometry" />
        </mxCell>
        <mxCell id="uvOmoEfLct1VwI4fXbVf-12" value="" style="ellipse;whiteSpace=wrap;html=1;aspect=fixed;strokeWidth=2;fillColor=#990099;fontFamily=Times New Roman;" parent="1" vertex="1">
          <mxGeometry x="399" y="390" width="30" height="30" as="geometry" />
        </mxCell>
        <mxCell id="uvOmoEfLct1VwI4fXbVf-30" style="edgeStyle=orthogonalEdgeStyle;rounded=0;orthogonalLoop=1;jettySize=auto;html=1;exitX=0.5;exitY=0;exitDx=0;exitDy=0;entryX=0.5;entryY=1;entryDx=0;entryDy=0;strokeColor=#EA6B66;fontFamily=Times New Roman;" parent="1" source="uvOmoEfLct1VwI4fXbVf-13" target="uvOmoEfLct1VwI4fXbVf-12" edge="1">
          <mxGeometry relative="1" as="geometry" />
        </mxCell>
        <mxCell id="uvOmoEfLct1VwI4fXbVf-13" value="" style="ellipse;whiteSpace=wrap;html=1;aspect=fixed;strokeWidth=2;fillColor=#EA6B66;fontFamily=Times New Roman;" parent="1" vertex="1">
          <mxGeometry x="399" y="460" width="30" height="30" as="geometry" />
        </mxCell>
        <mxCell id="uvOmoEfLct1VwI4fXbVf-25" value="" style="endArrow=classic;html=1;rounded=0;strokeColor=#3399FF;entryX=0;entryY=0;entryDx=0;entryDy=0;exitX=1;exitY=1;exitDx=0;exitDy=0;fontFamily=Times New Roman;" parent="1" source="uvOmoEfLct1VwI4fXbVf-1" target="uvOmoEfLct1VwI4fXbVf-6" edge="1">
          <mxGeometry width="50" height="50" relative="1" as="geometry">
            <mxPoint x="320" y="160" as="sourcePoint" />
            <mxPoint x="370" y="110" as="targetPoint" />
          </mxGeometry>
        </mxCell>
        <mxCell id="uvOmoEfLct1VwI4fXbVf-26" value="" style="endArrow=classic;html=1;rounded=0;strokeColor=#3399FF;entryX=0;entryY=0;entryDx=0;entryDy=0;exitX=1;exitY=1;exitDx=0;exitDy=0;fontFamily=Times New Roman;" parent="1" source="uvOmoEfLct1VwI4fXbVf-8" target="uvOmoEfLct1VwI4fXbVf-13" edge="1">
          <mxGeometry width="50" height="50" relative="1" as="geometry">
            <mxPoint x="489.99660171779817" y="279.99660171779817" as="sourcePoint" />
            <mxPoint x="578.7833982822018" y="328.7833982822018" as="targetPoint" />
          </mxGeometry>
        </mxCell>
        <mxCell id="uvOmoEfLct1VwI4fXbVf-34" value="P&lt;sub style=&quot;font-size: 14px;&quot;&gt;7&lt;/sub&gt;" style="text;html=1;strokeColor=none;fillColor=none;align=center;verticalAlign=middle;whiteSpace=wrap;rounded=0;fontSize=14;fontStyle=1;fontFamily=Times New Roman;" parent="1" vertex="1">
          <mxGeometry x="140" y="180" width="30" height="30" as="geometry" />
        </mxCell>
        <mxCell id="uvOmoEfLct1VwI4fXbVf-35" value="P&lt;span style=&quot;font-size: 14px;&quot;&gt;&lt;sub style=&quot;font-size: 14px;&quot;&gt;6&lt;/sub&gt;&lt;/span&gt;" style="text;html=1;strokeColor=none;fillColor=none;align=center;verticalAlign=middle;whiteSpace=wrap;rounded=0;fontSize=14;fontStyle=1;fontFamily=Times New Roman;" parent="1" vertex="1">
          <mxGeometry x="140" y="250" width="30" height="30" as="geometry" />
        </mxCell>
        <mxCell id="uvOmoEfLct1VwI4fXbVf-36" value="P&lt;sub style=&quot;font-size: 14px;&quot;&gt;5&lt;/sub&gt;" style="text;html=1;strokeColor=none;fillColor=none;align=center;verticalAlign=middle;whiteSpace=wrap;rounded=0;fontSize=14;fontStyle=1;fontFamily=Times New Roman;" parent="1" vertex="1">
          <mxGeometry x="140" y="320" width="30" height="30" as="geometry" />
        </mxCell>
        <mxCell id="uvOmoEfLct1VwI4fXbVf-37" value="P&lt;sub style=&quot;font-size: 14px;&quot;&gt;4&lt;/sub&gt;" style="text;html=1;strokeColor=none;fillColor=none;align=center;verticalAlign=middle;whiteSpace=wrap;rounded=0;fontSize=14;fontStyle=1;fontFamily=Times New Roman;" parent="1" vertex="1">
          <mxGeometry x="140" y="390" width="30" height="30" as="geometry" />
        </mxCell>
        <mxCell id="uvOmoEfLct1VwI4fXbVf-38" value="P&lt;sub style=&quot;font-size: 14px;&quot;&gt;3&lt;/sub&gt;" style="text;html=1;strokeColor=none;fillColor=none;align=center;verticalAlign=middle;whiteSpace=wrap;rounded=0;fontSize=14;fontStyle=1;fontFamily=Times New Roman;" parent="1" vertex="1">
          <mxGeometry x="140" y="460" width="30" height="30" as="geometry" />
        </mxCell>
        <mxCell id="uvOmoEfLct1VwI4fXbVf-39" value="" style="curved=1;endArrow=classic;html=1;rounded=0;strokeColor=#990099;entryX=0;entryY=0;entryDx=0;entryDy=0;exitX=1;exitY=0;exitDx=0;exitDy=0;fontFamily=Times New Roman;" parent="1" source="uvOmoEfLct1VwI4fXbVf-2" target="uvOmoEfLct1VwI4fXbVf-10" edge="1">
          <mxGeometry width="50" height="50" relative="1" as="geometry">
            <mxPoint x="300" y="190" as="sourcePoint" />
            <mxPoint x="350" y="140" as="targetPoint" />
            <Array as="points">
              <mxPoint x="300" y="210" />
            </Array>
          </mxGeometry>
        </mxCell>
        <mxCell id="uvOmoEfLct1VwI4fXbVf-40" value="" style="curved=1;endArrow=classic;html=1;rounded=0;strokeColor=#990099;entryX=0;entryY=0;entryDx=0;entryDy=0;exitX=1;exitY=0;exitDx=0;exitDy=0;fontFamily=Times New Roman;" parent="1" source="uvOmoEfLct1VwI4fXbVf-3" target="uvOmoEfLct1VwI4fXbVf-11" edge="1">
          <mxGeometry width="50" height="50" relative="1" as="geometry">
            <mxPoint x="210" y="310" as="sourcePoint" />
            <mxPoint x="398.50339828220183" y="320.00339828220183" as="targetPoint" />
            <Array as="points">
              <mxPoint x="290" y="280" />
            </Array>
          </mxGeometry>
        </mxCell>
        <mxCell id="uvOmoEfLct1VwI4fXbVf-41" value="" style="curved=1;endArrow=classic;html=1;rounded=0;strokeColor=#990099;entryX=0;entryY=0;entryDx=0;entryDy=0;exitX=1;exitY=0;exitDx=0;exitDy=0;fontFamily=Times New Roman;" parent="1" source="uvOmoEfLct1VwI4fXbVf-4" target="uvOmoEfLct1VwI4fXbVf-12" edge="1">
          <mxGeometry width="50" height="50" relative="1" as="geometry">
            <mxPoint x="206.10660171779818" y="390.00339828220183" as="sourcePoint" />
            <mxPoint x="403.8933982822018" y="390.00339828220183" as="targetPoint" />
            <Array as="points">
              <mxPoint x="290" y="346" />
            </Array>
          </mxGeometry>
        </mxCell>
        <mxCell id="uvOmoEfLct1VwI4fXbVf-42" style="edgeStyle=orthogonalEdgeStyle;rounded=0;orthogonalLoop=1;jettySize=auto;html=1;entryX=0;entryY=0.5;entryDx=0;entryDy=0;exitX=1;exitY=0.5;exitDx=0;exitDy=0;fontFamily=Times New Roman;" parent="1" source="uvOmoEfLct1VwI4fXbVf-10" target="uvOmoEfLct1VwI4fXbVf-47" edge="1">
          <mxGeometry relative="1" as="geometry">
            <mxPoint x="440" y="265" as="sourcePoint" />
          </mxGeometry>
        </mxCell>
        <mxCell id="uvOmoEfLct1VwI4fXbVf-43" style="edgeStyle=orthogonalEdgeStyle;rounded=0;orthogonalLoop=1;jettySize=auto;html=1;entryX=0;entryY=0.5;entryDx=0;entryDy=0;exitX=1;exitY=0.5;exitDx=0;exitDy=0;fontFamily=Times New Roman;" parent="1" source="uvOmoEfLct1VwI4fXbVf-11" target="uvOmoEfLct1VwI4fXbVf-50" edge="1">
          <mxGeometry relative="1" as="geometry">
            <mxPoint x="440" y="335" as="sourcePoint" />
          </mxGeometry>
        </mxCell>
        <mxCell id="uvOmoEfLct1VwI4fXbVf-44" style="edgeStyle=orthogonalEdgeStyle;rounded=0;orthogonalLoop=1;jettySize=auto;html=1;entryX=0;entryY=0.5;entryDx=0;entryDy=0;exitX=1;exitY=0.5;exitDx=0;exitDy=0;fontFamily=Times New Roman;" parent="1" source="uvOmoEfLct1VwI4fXbVf-12" target="uvOmoEfLct1VwI4fXbVf-52" edge="1">
          <mxGeometry relative="1" as="geometry">
            <mxPoint x="440" y="405" as="sourcePoint" />
          </mxGeometry>
        </mxCell>
        <mxCell id="uvOmoEfLct1VwI4fXbVf-45" style="edgeStyle=orthogonalEdgeStyle;rounded=0;orthogonalLoop=1;jettySize=auto;html=1;exitX=1;exitY=0.5;exitDx=0;exitDy=0;entryX=0;entryY=0.5;entryDx=0;entryDy=0;fontFamily=Times New Roman;" parent="1" source="uvOmoEfLct1VwI4fXbVf-47" target="uvOmoEfLct1VwI4fXbVf-55" edge="1">
          <mxGeometry relative="1" as="geometry" />
        </mxCell>
        <mxCell id="uvOmoEfLct1VwI4fXbVf-46" style="edgeStyle=orthogonalEdgeStyle;rounded=0;orthogonalLoop=1;jettySize=auto;html=1;exitX=0.5;exitY=1;exitDx=0;exitDy=0;entryX=0.5;entryY=0;entryDx=0;entryDy=0;strokeColor=#3399FF;fontFamily=Times New Roman;" parent="1" source="uvOmoEfLct1VwI4fXbVf-47" target="uvOmoEfLct1VwI4fXbVf-50" edge="1">
          <mxGeometry relative="1" as="geometry" />
        </mxCell>
        <mxCell id="uvOmoEfLct1VwI4fXbVf-47" value="" style="ellipse;whiteSpace=wrap;html=1;aspect=fixed;fillColor=#3399FF;strokeColor=#003333;strokeWidth=2;fontFamily=Times New Roman;" parent="1" vertex="1">
          <mxGeometry x="513.39" y="250" width="30" height="30" as="geometry" />
        </mxCell>
        <mxCell id="uvOmoEfLct1VwI4fXbVf-48" style="edgeStyle=orthogonalEdgeStyle;rounded=0;orthogonalLoop=1;jettySize=auto;html=1;exitX=1;exitY=0.5;exitDx=0;exitDy=0;entryX=0;entryY=0.5;entryDx=0;entryDy=0;fontFamily=Times New Roman;" parent="1" source="uvOmoEfLct1VwI4fXbVf-50" target="uvOmoEfLct1VwI4fXbVf-57" edge="1">
          <mxGeometry relative="1" as="geometry" />
        </mxCell>
        <mxCell id="uvOmoEfLct1VwI4fXbVf-49" style="edgeStyle=orthogonalEdgeStyle;rounded=0;orthogonalLoop=1;jettySize=auto;html=1;exitX=0.5;exitY=1;exitDx=0;exitDy=0;entryX=0.5;entryY=0;entryDx=0;entryDy=0;strokeColor=#3399FF;fontFamily=Times New Roman;" parent="1" source="uvOmoEfLct1VwI4fXbVf-50" target="uvOmoEfLct1VwI4fXbVf-52" edge="1">
          <mxGeometry relative="1" as="geometry" />
        </mxCell>
        <mxCell id="uvOmoEfLct1VwI4fXbVf-50" value="" style="ellipse;whiteSpace=wrap;html=1;aspect=fixed;strokeWidth=2;fillColor=#00CC00;fontFamily=Times New Roman;" parent="1" vertex="1">
          <mxGeometry x="513.39" y="320" width="30" height="30" as="geometry" />
        </mxCell>
        <mxCell id="uvOmoEfLct1VwI4fXbVf-51" style="edgeStyle=orthogonalEdgeStyle;rounded=0;orthogonalLoop=1;jettySize=auto;html=1;exitX=1;exitY=0.5;exitDx=0;exitDy=0;entryX=0;entryY=0.5;entryDx=0;entryDy=0;fontFamily=Times New Roman;" parent="1" source="uvOmoEfLct1VwI4fXbVf-52" target="uvOmoEfLct1VwI4fXbVf-59" edge="1">
          <mxGeometry relative="1" as="geometry" />
        </mxCell>
        <mxCell id="uvOmoEfLct1VwI4fXbVf-52" value="" style="ellipse;whiteSpace=wrap;html=1;aspect=fixed;strokeWidth=2;fillColor=#990099;fontFamily=Times New Roman;" parent="1" vertex="1">
          <mxGeometry x="513.39" y="390" width="30" height="30" as="geometry" />
        </mxCell>
        <mxCell id="uvOmoEfLct1VwI4fXbVf-53" value="" style="ellipse;whiteSpace=wrap;html=1;aspect=fixed;strokeWidth=2;fillColor=#FFF2CC;fontFamily=Times New Roman;" parent="1" vertex="1">
          <mxGeometry x="622.39" y="180" width="30" height="30" as="geometry" />
        </mxCell>
        <mxCell id="uvOmoEfLct1VwI4fXbVf-54" style="edgeStyle=orthogonalEdgeStyle;rounded=0;orthogonalLoop=1;jettySize=auto;html=1;exitX=0.5;exitY=0;exitDx=0;exitDy=0;entryX=0.5;entryY=1;entryDx=0;entryDy=0;strokeColor=#EA6B66;fontFamily=Times New Roman;" parent="1" source="uvOmoEfLct1VwI4fXbVf-55" target="uvOmoEfLct1VwI4fXbVf-53" edge="1">
          <mxGeometry relative="1" as="geometry" />
        </mxCell>
        <mxCell id="uvOmoEfLct1VwI4fXbVf-55" value="" style="ellipse;whiteSpace=wrap;html=1;aspect=fixed;strokeWidth=2;fillColor=#3399FF;fontFamily=Times New Roman;" parent="1" vertex="1">
          <mxGeometry x="621.89" y="250" width="30" height="30" as="geometry" />
        </mxCell>
        <mxCell id="uvOmoEfLct1VwI4fXbVf-56" style="edgeStyle=orthogonalEdgeStyle;rounded=0;orthogonalLoop=1;jettySize=auto;html=1;exitX=0.5;exitY=0;exitDx=0;exitDy=0;entryX=0.5;entryY=1;entryDx=0;entryDy=0;strokeColor=#EA6B66;fontFamily=Times New Roman;" parent="1" source="uvOmoEfLct1VwI4fXbVf-57" target="uvOmoEfLct1VwI4fXbVf-55" edge="1">
          <mxGeometry relative="1" as="geometry" />
        </mxCell>
        <mxCell id="uvOmoEfLct1VwI4fXbVf-57" value="" style="ellipse;whiteSpace=wrap;html=1;aspect=fixed;strokeWidth=2;fillColor=#00CC00;fontFamily=Times New Roman;" parent="1" vertex="1">
          <mxGeometry x="622.39" y="320" width="30" height="30" as="geometry" />
        </mxCell>
        <mxCell id="uvOmoEfLct1VwI4fXbVf-58" style="edgeStyle=orthogonalEdgeStyle;rounded=0;orthogonalLoop=1;jettySize=auto;html=1;exitX=0.5;exitY=0;exitDx=0;exitDy=0;entryX=0.5;entryY=1;entryDx=0;entryDy=0;strokeColor=#EA6B66;fontFamily=Times New Roman;" parent="1" source="uvOmoEfLct1VwI4fXbVf-59" target="uvOmoEfLct1VwI4fXbVf-57" edge="1">
          <mxGeometry relative="1" as="geometry" />
        </mxCell>
        <mxCell id="uvOmoEfLct1VwI4fXbVf-59" value="" style="ellipse;whiteSpace=wrap;html=1;aspect=fixed;strokeWidth=2;fillColor=#990099;fontFamily=Times New Roman;" parent="1" vertex="1">
          <mxGeometry x="622.39" y="390" width="30" height="30" as="geometry" />
        </mxCell>
        <mxCell id="uvOmoEfLct1VwI4fXbVf-60" style="edgeStyle=orthogonalEdgeStyle;rounded=0;orthogonalLoop=1;jettySize=auto;html=1;exitX=0.5;exitY=0;exitDx=0;exitDy=0;entryX=0.5;entryY=1;entryDx=0;entryDy=0;strokeColor=#EA6B66;fontFamily=Times New Roman;" parent="1" source="uvOmoEfLct1VwI4fXbVf-61" target="uvOmoEfLct1VwI4fXbVf-59" edge="1">
          <mxGeometry relative="1" as="geometry" />
        </mxCell>
        <mxCell id="uvOmoEfLct1VwI4fXbVf-61" value="" style="ellipse;whiteSpace=wrap;html=1;aspect=fixed;strokeWidth=2;fillColor=#EA6B66;fontFamily=Times New Roman;" parent="1" vertex="1">
          <mxGeometry x="622.39" y="460" width="30" height="30" as="geometry" />
        </mxCell>
        <mxCell id="uvOmoEfLct1VwI4fXbVf-62" value="" style="endArrow=classic;html=1;rounded=0;strokeColor=#3399FF;entryX=0;entryY=0;entryDx=0;entryDy=0;exitX=1;exitY=1;exitDx=0;exitDy=0;fontFamily=Times New Roman;" parent="1" source="uvOmoEfLct1VwI4fXbVf-9" target="uvOmoEfLct1VwI4fXbVf-47" edge="1">
          <mxGeometry width="50" height="50" relative="1" as="geometry">
            <mxPoint x="428.99660171779817" y="205.60660171779818" as="sourcePoint" />
            <mxPoint x="593.39" y="110" as="targetPoint" />
          </mxGeometry>
        </mxCell>
        <mxCell id="uvOmoEfLct1VwI4fXbVf-63" value="" style="endArrow=classic;html=1;rounded=0;strokeColor=#3399FF;entryX=0;entryY=0;entryDx=0;entryDy=0;exitX=1;exitY=1;exitDx=0;exitDy=0;fontFamily=Times New Roman;" parent="1" source="uvOmoEfLct1VwI4fXbVf-52" target="uvOmoEfLct1VwI4fXbVf-61" edge="1">
          <mxGeometry width="50" height="50" relative="1" as="geometry">
            <mxPoint x="713.3866017177982" y="279.99660171779817" as="sourcePoint" />
            <mxPoint x="802.1733982822018" y="328.7833982822018" as="targetPoint" />
          </mxGeometry>
        </mxCell>
        <mxCell id="uvOmoEfLct1VwI4fXbVf-64" value="" style="curved=1;endArrow=classic;html=1;rounded=0;strokeColor=#990099;entryX=0;entryY=0;entryDx=0;entryDy=0;exitX=1;exitY=0;exitDx=0;exitDy=0;fontFamily=Times New Roman;" parent="1" source="uvOmoEfLct1VwI4fXbVf-10" target="uvOmoEfLct1VwI4fXbVf-55" edge="1">
          <mxGeometry width="50" height="50" relative="1" as="geometry">
            <mxPoint x="428.99660171779817" y="254.39339828220182" as="sourcePoint" />
            <mxPoint x="573.39" y="140" as="targetPoint" />
            <Array as="points">
              <mxPoint x="523.39" y="210" />
            </Array>
          </mxGeometry>
        </mxCell>
        <mxCell id="uvOmoEfLct1VwI4fXbVf-65" value="" style="curved=1;endArrow=classic;html=1;rounded=0;strokeColor=#990099;entryX=0;entryY=0;entryDx=0;entryDy=0;exitX=1;exitY=0;exitDx=0;exitDy=0;fontFamily=Times New Roman;" parent="1" source="uvOmoEfLct1VwI4fXbVf-11" target="uvOmoEfLct1VwI4fXbVf-57" edge="1">
          <mxGeometry width="50" height="50" relative="1" as="geometry">
            <mxPoint x="428.99660171779817" y="324.3933982822018" as="sourcePoint" />
            <mxPoint x="621.8933982822018" y="320.00339828220183" as="targetPoint" />
            <Array as="points">
              <mxPoint x="513.39" y="280" />
            </Array>
          </mxGeometry>
        </mxCell>
        <mxCell id="uvOmoEfLct1VwI4fXbVf-66" value="" style="curved=1;endArrow=classic;html=1;rounded=0;strokeColor=#990099;entryX=0;entryY=0;entryDx=0;entryDy=0;exitX=1;exitY=0;exitDx=0;exitDy=0;fontFamily=Times New Roman;" parent="1" source="uvOmoEfLct1VwI4fXbVf-12" target="uvOmoEfLct1VwI4fXbVf-59" edge="1">
          <mxGeometry width="50" height="50" relative="1" as="geometry">
            <mxPoint x="428.99660171779817" y="394.3933982822018" as="sourcePoint" />
            <mxPoint x="627.2833982822018" y="390.00339828220183" as="targetPoint" />
            <Array as="points">
              <mxPoint x="513.39" y="346" />
            </Array>
          </mxGeometry>
        </mxCell>
        <mxCell id="uvOmoEfLct1VwI4fXbVf-68" value="" style="rounded=0;whiteSpace=wrap;html=1;strokeColor=#660033;strokeWidth=2;fillColor=none;dashed=1;fontFamily=Times New Roman;" parent="1" vertex="1">
          <mxGeometry x="240" y="150" width="200" height="350" as="geometry" />
        </mxCell>
        <mxCell id="uvOmoEfLct1VwI4fXbVf-69" value="&lt;font style=&quot;font-size: 15px;&quot; color=&quot;#660033&quot;&gt;&lt;b style=&quot;font-size: 15px;&quot;&gt;Repeated Block&lt;/b&gt;&lt;/font&gt;" style="text;html=1;strokeColor=none;fillColor=none;align=center;verticalAlign=middle;whiteSpace=wrap;rounded=0;dashed=1;fontSize=15;fontFamily=Times New Roman;" parent="1" vertex="1">
          <mxGeometry x="285" y="150" width="110" height="30" as="geometry" />
        </mxCell>
        <mxCell id="fRnn3VQJJliKzaG-luul-1" value="&lt;font&gt;P&lt;sub&gt;7&lt;/sub&gt;&lt;sup&gt;In&lt;/sup&gt;&lt;/font&gt;" style="text;html=1;align=center;verticalAlign=middle;whiteSpace=wrap;rounded=0;fontColor=#006666;fontFamily=Times New Roman;fontStyle=1" vertex="1" parent="1">
          <mxGeometry x="240" y="200" width="40" height="30" as="geometry" />
        </mxCell>
        <mxCell id="fRnn3VQJJliKzaG-luul-2" value="&lt;font&gt;P&lt;sub&gt;6&lt;/sub&gt;&lt;sup&gt;In&lt;/sup&gt;&lt;/font&gt;" style="text;html=1;align=center;verticalAlign=middle;whiteSpace=wrap;rounded=0;fontColor=#006666;fontFamily=Times New Roman;fontStyle=1" vertex="1" parent="1">
          <mxGeometry x="240" y="241" width="40" height="30" as="geometry" />
        </mxCell>
        <mxCell id="fRnn3VQJJliKzaG-luul-3" value="&lt;font&gt;P&lt;sub&gt;6&lt;/sub&gt;&lt;sup&gt;In&lt;/sup&gt;&lt;/font&gt;" style="text;html=1;align=center;verticalAlign=middle;whiteSpace=wrap;rounded=0;fontColor=#006666;fontFamily=Times New Roman;fontStyle=1" vertex="1" parent="1">
          <mxGeometry x="285" y="208" width="40" height="30" as="geometry" />
        </mxCell>
        <mxCell id="fRnn3VQJJliKzaG-luul-4" value="&lt;font&gt;P&lt;sub&gt;6&lt;/sub&gt;&lt;sup&gt;td&lt;/sup&gt;&lt;/font&gt;" style="text;html=1;align=center;verticalAlign=middle;whiteSpace=wrap;rounded=0;fontColor=#006666;fontFamily=Times New Roman;fontStyle=1" vertex="1" parent="1">
          <mxGeometry x="330" y="241" width="40" height="30" as="geometry" />
        </mxCell>
        <mxCell id="fRnn3VQJJliKzaG-luul-5" value="&lt;font&gt;P&lt;sub&gt;6&lt;/sub&gt;&lt;sup&gt;out&lt;/sup&gt;&lt;/font&gt;" style="text;html=1;align=center;verticalAlign=middle;whiteSpace=wrap;rounded=0;fontColor=#006666;fontFamily=Times New Roman;fontStyle=1" vertex="1" parent="1">
          <mxGeometry x="440" y="241" width="40" height="30" as="geometry" />
        </mxCell>
        <mxCell id="fRnn3VQJJliKzaG-luul-7" value="&lt;font&gt;P&lt;sub&gt;5&lt;/sub&gt;&lt;sup&gt;out&lt;/sup&gt;&lt;/font&gt;" style="text;html=1;align=center;verticalAlign=middle;whiteSpace=wrap;rounded=0;fontColor=#006666;fontFamily=Times New Roman;fontStyle=1" vertex="1" parent="1">
          <mxGeometry x="380" y="290" width="40" height="30" as="geometry" />
        </mxCell>
      </root>
    </mxGraphModel>
  </diagram>
</mxfile>
